<svg width="180" height="32" viewBox="0 0 180 32" fill="none" xmlns="http://www.w3.org/2000/svg">
<g clip-path="url(#clip0_955_521)">
<path d="M33.5106 0L23.1497 30.7032H3.28267L0 25.586L8.61702 0H17.747L14.1907 10.5498H20.7903L24.3465 0H33.4764H33.5106ZM15.7637 25.4808L19.0464 15.7722H12.4468L9.16413 25.4808H15.7637ZM38.3321 0H47.462L37.1011 30.7032H27.9711L38.3321 0Z" fill="#ED4E39"/>
<path d="M44.1793 25.4808H84.9392L83.1953 30.7032H42.4354L44.1793 25.4808ZM54.8138 0.0350494H91.06L89.3161 5.25739H67.9104L66.7135 8.83242H83.1269L86.4096 13.9496L83.7766 21.7306H74.6467L77.2455 14.0197H64.9696L64.2515 16.1577L56.9681 21.6955H47.1201L48.864 16.4732H54.9848L58.7804 5.22234H53.0699L54.8138 0.0350494Z" fill="#ED4E39"/>
<path d="M92.7356 12.9332H133.495L131.991 17.3844H91.231L92.7356 12.9332ZM135.41 0L131.307 12.092H99.6428L96.9073 7.81599L99.5403 0H108.67L108.191 1.40197H125.733L126.212 0H135.342L135.41 0ZM125.015 32H92.9407L90.0342 28.2497L91.7781 23.0274H118.484L118.758 22.2212H92.0517L93.4194 18.1555H129.255L126.246 27.0931H99.5061L99.2325 27.8992H126.383L125.015 31.965V32ZM123.784 7.3253L124.229 5.99343H106.687L106.242 7.3253H123.784Z" fill="#ED4E39"/>
<path d="M156.919 30.7032H136.197L132.914 25.586L137.257 12.7579H152.2L154.73 5.22234H139.992L141.736 0H165.604L159.552 17.9452H144.609L142.078 25.4808H158.663L156.919 30.7032ZM169.229 0H178.359L174.358 11.8116H179.966L178.222 17.034H172.614L167.998 30.7032H158.868L169.229 0Z" fill="#ED4E39"/>
</g>
<defs>
<clipPath id="clip0_955_521">
<rect width="180" height="32" fill="white"/>
</clipPath>
</defs>
</svg>
